# xmcd CD database file
#
# Track frame offsets:
#	150
#	16235
#	27478
#	39514
#	59666
#	72254
#	84739
#	100272
#	120181
#	135625
#	151571
#	164186
#	177732
#
# Disc length: 2877 seconds
#
# Revision: 0
# Processed by: cddbd v1.5.2PL0 Copyright (c) Steve Scherf et al.
# Submitted via: CDex 1.70beta2
#
DISCID=ae0b3b0d
DTITLE=La kinky beat - one more time
DYEAR=1900
DGENRE=Salsa
TTITLE0=Minimal
TTITLE1=give me
TTITLE2=monster
TTITLE3=xhronic steady
TTITLE4=blaxck panther
TTITLE5=motor psycho
TTITLE6=eternity
TTITLE7=dejar de pensar
TTITLE8=vaffanculo
TTITLE9=fight
TTITLE10=big drummer
TTITLE11=rebel smile
TTITLE12=mas de lo mismo
EXTD=
EXTT0=
EXTT1=
EXTT2=
EXTT3=
EXTT4=
EXTT5=
EXTT6=
EXTT7=
EXTT8=
EXTT9=
EXTT10=
EXTT11=
EXTT12=
PLAYORDER=
